<svg xmlns="http://www.w3.org/2000/svg" width="360" height="240" viewBox="0 0 360 240" fill="none">
  <defs>
    <linearGradient id="b" x1="0" y1="0" x2="1" y2="1">
      <stop offset="0" stop-color="#6366F1" stop-opacity="0.22"/>
      <stop offset="1" stop-color="#A855F7" stop-opacity="0.18"/>
    </linearGradient>
  </defs>
  <rect x="16" y="16" width="328" height="208" rx="28" fill="url(#b)"/>
  <g transform="translate(56,54)">
    <rect x="0" y="42" width="192" height="84" rx="18" fill="#111827" opacity="0.12"/>
    <rect x="18" y="60" width="156" height="12" rx="6" fill="#111827" opacity="0.18"/>
    <rect x="18" y="82" width="110" height="12" rx="6" fill="#111827" opacity="0.12"/>
    <rect x="18" y="104" width="130" height="12" rx="6" fill="#111827" opacity="0.1"/>

    <path d="M238 124c24-18 44-40 44-64 0-14-9-24-23-24-10 0-19 6-24 16-6-10-14-16-24-16-14 0-23 10-23 24 0 24 20 46 44 64l2 2 2-2z" fill="#EF4444" opacity="0.9"/>
  </g>
</svg>
